<svg width="294" height="121" viewBox="0 0 294 121" fill="none" xmlns="http://www.w3.org/2000/svg">
<path d="M45.7637 56.873C40.6777 61.4121 34.6074 63.6816 27.5527 63.6816C23.2871 63.6816 20.2383 62.7793 18.4062 60.9746C17.3672 59.9902 16.8477 58.2539 16.8477 55.7656C16.8477 51.9375 19.7598 49.4629 25.584 48.3418C27.416 47.9863 29.6172 47.8086 32.1875 47.8086C34.7578 47.8086 38.2715 48.2871 42.7285 49.2441C45.1074 46.5918 47.9375 42.6953 51.2188 37.5547C54.5273 32.3867 57.1387 28.4082 59.0527 25.6191C60.9668 22.8301 63.1406 19.9863 65.5742 17.0879C68.0078 14.1621 70.5508 11.5234 73.2031 9.17188C78.5898 4.35938 83.9219 1.95312 89.1992 1.95312C91.5508 1.95312 93.2461 2.55469 94.2852 3.75781C95.3242 4.93359 95.8438 6.3418 95.8438 7.98242C95.8438 9.5957 95.0918 11.4824 93.5879 13.6426C92.1113 15.8027 90.3887 17.7168 88.4199 19.3848C86.4785 21.0527 84.5508 22.4746 82.6367 23.6504C80.75 24.7988 79.2598 25.373 78.166 25.373C77.0723 25.373 76.1289 24.9082 75.3359 23.9785C74.543 23.0488 74.1465 22.1602 74.1465 21.3125C74.1465 20.4375 74.2559 19.8359 74.4746 19.5078C74.7207 19.1523 74.9668 18.9746 75.2129 18.9746C75.459 18.9746 75.6094 19.125 75.6641 19.4258C76.5391 19.1523 77.9336 18.3047 79.8477 16.8828C81.7891 15.4336 83.5527 13.9297 85.1387 12.3711C86.7246 10.8125 87.5176 9.8418 87.5176 9.45898C87.5176 9.04883 87.2715 8.84375 86.7793 8.84375C86.3145 8.84375 85.6719 9.00781 84.8516 9.33594C84.0312 9.66406 82.9375 10.3477 81.5703 11.3867C80.2031 12.3984 78.7266 13.7109 77.1406 15.3242C73.3125 19.1523 69.0469 24.5801 64.3438 31.6074C63.25 33.1934 61.7051 35.5039 59.709 38.5391C55.6348 44.6914 52.7227 48.9023 50.9727 51.1719C65 54.8633 75.0215 56.709 81.0371 56.709C83.8262 56.709 85.7812 56.3535 86.9023 55.6426C87.3125 55.3965 87.5859 55.2734 87.7227 55.2734C87.8594 55.2734 87.9277 55.3828 87.9277 55.6016C87.9277 55.8203 87.8047 56.1484 87.5586 56.5859C87.3125 57.0234 86.6973 57.9531 85.7129 59.375C84.7559 60.7969 84.0449 61.6445 83.5801 61.918C82.2402 62.7109 79.957 63.1074 76.7305 63.1074C73.5312 63.1074 70.4688 62.875 67.543 62.4102C64.6445 61.9453 62.3066 61.4941 60.5293 61.0566C58.752 60.5918 56.1133 59.8535 52.6133 58.8418C49.1406 57.8301 46.8574 57.1738 45.7637 56.873ZM30.793 54.3711C27.2109 54.3711 25.4199 54.7949 25.4199 55.6426C25.4199 55.9707 25.7207 56.2578 26.3223 56.5039C26.9512 56.75 27.6895 56.873 28.5371 56.873C31.1895 56.873 33.7461 56.1758 36.207 54.7812C34.1016 54.5078 32.2969 54.3711 30.793 54.3711ZM122.863 16.9648C122.863 18.5234 122.139 20.0957 120.689 21.6816C119.24 23.2402 117.723 24.0195 116.137 24.0195C114.578 24.0195 113.799 23.1992 113.799 21.5586C113.799 19.918 114.482 18.3594 115.85 16.8828C117.244 15.3789 118.775 14.627 120.443 14.627C121.182 14.627 121.769 14.832 122.207 15.2422C122.644 15.6523 122.863 16.2266 122.863 16.9648ZM116.219 52.7715C116.219 53.5918 116.137 54.1797 115.973 54.5352C114.633 57.2695 112.5 59.4844 109.574 61.1797C106.648 62.8477 104.105 63.6816 101.945 63.6816C99.7851 63.6816 97.9257 62.957 96.3671 61.5078C94.8085 60.0586 94.0292 58.582 94.0292 57.0781C94.0292 55.5742 94.7812 53.3867 96.2851 50.5156C97.789 47.6445 99.2929 44.9922 100.797 42.5586C102.301 40.125 103.053 38.8125 103.053 38.6211C103.053 38.4023 102.766 37.9922 102.191 37.3906C101.644 36.7891 101.371 36.3516 101.371 36.0781C101.371 35.7773 101.932 35.0254 103.053 33.8223C104.201 32.5918 105.582 31.3887 107.195 30.2129C108.836 29.0098 110.08 28.4082 110.928 28.4082C111.803 28.4082 112.582 28.791 113.266 29.5566C113.949 30.3223 114.291 31.0195 114.291 31.6484C114.291 32.2773 111.037 38.1973 104.529 49.4082C104.447 49.5723 104.215 49.9414 103.832 50.5156C103.476 51.0625 103.189 51.5273 102.971 51.9102C102.779 52.2656 102.547 52.7031 102.273 53.2227C101.726 54.3164 101.453 55.2324 101.453 55.9707C101.453 56.9004 102.082 57.3652 103.34 57.3652C104.598 57.3652 105.896 56.9414 107.236 56.0938C108.603 55.2188 109.779 54.2617 110.764 53.2227C113.334 50.4609 114.797 49.0801 115.152 49.0801C115.863 49.0801 116.219 50.3105 116.219 52.7715ZM157.306 0.435547C158.619 0.435547 159.767 0.832031 160.752 1.625C161.764 2.39063 162.269 3.53906 162.269 5.07031C162.269 6.60156 161.422 9.00781 159.726 12.2891C158.031 15.543 155.994 18.8789 153.615 22.2969C151.236 25.6875 148.543 29.2969 145.535 33.125C140.777 39.1953 136.211 44.6504 131.836 49.4902C131.808 49.8184 131.685 50.4336 131.467 51.3359C131.275 52.2109 131.18 53.0996 131.18 54.002C131.18 54.9043 131.59 55.7246 132.41 56.4629C133.258 57.1738 134.297 57.5293 135.527 57.5293C136.758 57.5293 138.07 57.0918 139.465 56.2168C140.887 55.3418 142.117 54.3711 143.156 53.3047C145.89 50.4883 147.586 49.0801 148.242 49.0801C148.898 49.0801 149.226 50.0781 149.226 52.0742V52.8945C149.226 53.9609 149.035 54.7402 148.652 55.2324C146.355 58.0488 143.771 60.1543 140.9 61.5488C138.029 62.916 135.308 63.5996 132.738 63.5996C130.168 63.5996 128.213 62.8203 126.873 61.2617C125.533 59.6758 124.863 57.5156 124.863 54.7812C124.863 49.4492 126.285 43.1875 129.129 35.9961C132 28.7773 135.226 22.6387 138.808 17.5801C146.875 6.15039 153.041 0.435547 157.306 0.435547ZM155.461 7.24414C155.461 6.83398 155.324 6.62891 155.051 6.62891C154.094 6.62891 151.578 9.36328 147.504 14.832C143.43 20.3008 140.476 24.6621 138.644 27.916C136.84 31.1699 135.131 35.2578 133.517 40.1797C136.744 36.3516 141.201 30.3906 146.889 22.2969C152.603 14.1758 155.461 9.1582 155.461 7.24414ZM189.043 0.435547C190.355 0.435547 191.504 0.832031 192.488 1.625C193.5 2.39063 194.006 3.53906 194.006 5.07031C194.006 6.60156 193.158 9.00781 191.463 12.2891C189.767 15.543 187.73 18.8789 185.351 22.2969C182.972 25.6875 180.279 29.2969 177.271 33.125C172.513 39.1953 167.947 44.6504 163.572 49.4902C163.545 49.8184 163.422 50.4336 163.203 51.3359C163.011 52.2109 162.916 53.0996 162.916 54.002C162.916 54.9043 163.326 55.7246 164.146 56.4629C164.994 57.1738 166.033 57.5293 167.263 57.5293C168.494 57.5293 169.806 57.0918 171.201 56.2168C172.623 55.3418 173.853 54.3711 174.892 53.3047C177.627 50.4883 179.322 49.0801 179.978 49.0801C180.635 49.0801 180.963 50.0781 180.963 52.0742V52.8945C180.963 53.9609 180.771 54.7402 180.388 55.2324C178.092 58.0488 175.508 60.1543 172.636 61.5488C169.765 62.916 167.045 63.5996 164.474 63.5996C161.904 63.5996 159.949 62.8203 158.609 61.2617C157.269 59.6758 156.599 57.5156 156.599 54.7812C156.599 49.4492 158.021 43.1875 160.865 35.9961C163.736 28.7773 166.963 22.6387 170.545 17.5801C178.611 6.15039 184.777 0.435547 189.043 0.435547ZM187.197 7.24414C187.197 6.83398 187.06 6.62891 186.787 6.62891C185.83 6.62891 183.314 9.36328 179.24 14.832C175.166 20.3008 172.213 24.6621 170.381 27.916C168.576 31.1699 166.867 35.2578 165.254 40.1797C168.48 36.3516 172.937 30.3906 178.625 22.2969C184.34 14.1758 187.197 9.1582 187.197 7.24414ZM213.478 16.9648C213.478 18.5234 212.754 20.0957 211.304 21.6816C209.855 23.2402 208.338 24.0195 206.752 24.0195C205.193 24.0195 204.414 23.1992 204.414 21.5586C204.414 19.918 205.097 18.3594 206.465 16.8828C207.859 15.3789 209.39 14.627 211.058 14.627C211.797 14.627 212.384 14.832 212.822 15.2422C213.259 15.6523 213.478 16.2266 213.478 16.9648ZM206.834 52.7715C206.834 53.5918 206.752 54.1797 206.588 54.5352C205.248 57.2695 203.115 59.4844 200.189 61.1797C197.263 62.8477 194.72 63.6816 192.56 63.6816C190.4 63.6816 188.541 62.957 186.982 61.5078C185.424 60.0586 184.644 58.582 184.644 57.0781C184.644 55.5742 185.396 53.3867 186.9 50.5156C188.404 47.6445 189.908 44.9922 191.412 42.5586C192.916 40.125 193.668 38.8125 193.668 38.6211C193.668 38.4023 193.381 37.9922 192.806 37.3906C192.259 36.7891 191.986 36.3516 191.986 36.0781C191.986 35.7773 192.547 35.0254 193.668 33.8223C194.816 32.5918 196.197 31.3887 197.81 30.2129C199.451 29.0098 200.695 28.4082 201.543 28.4082C202.418 28.4082 203.197 28.791 203.881 29.5566C204.564 30.3223 204.906 31.0195 204.906 31.6484C204.906 32.2773 201.652 38.1973 195.144 49.4082C195.062 49.5723 194.83 49.9414 194.447 50.5156C194.091 51.0625 193.804 51.5273 193.586 51.9102C193.394 52.2656 193.162 52.7031 192.888 53.2227C192.341 54.3164 192.068 55.2324 192.068 55.9707C192.068 56.9004 192.697 57.3652 193.955 57.3652C195.213 57.3652 196.511 56.9414 197.851 56.0938C199.218 55.2188 200.394 54.2617 201.379 53.2227C203.949 50.4609 205.412 49.0801 205.767 49.0801C206.478 49.0801 206.834 50.3105 206.834 52.7715ZM242.138 31.3203C242.138 33.125 241.4 34.7109 239.923 36.0781C238.474 37.4453 236.82 38.1289 234.961 38.1289C234.359 38.1289 233.962 37.9922 233.771 37.7188C233.58 37.418 233.484 37.0352 233.484 36.5703C233.484 36.1055 233.539 35.6543 233.648 35.2168C232.664 35.5449 231.57 36.0508 230.367 36.7344C229.164 37.418 227.687 38.4297 225.937 39.7695C224.187 41.1094 223.312 42.1074 223.312 42.7637C223.312 42.9824 223.627 43.0918 224.255 43.0918C224.912 43.0918 225.91 42.873 227.25 42.4355C228.589 41.9707 229.519 41.7383 230.039 41.7383C230.586 41.7383 230.941 41.7656 231.105 41.8203C231.461 42.0117 231.843 42.4355 232.254 43.0918C232.664 43.7207 232.869 44.2266 232.869 44.6094C232.869 44.9648 232.513 45.4434 231.802 46.0449C231.091 46.6465 230.285 47.1113 229.382 47.4395C228.48 47.7402 227.879 47.9727 227.578 48.1367C221.808 51.3633 218.923 53.5781 218.923 54.7812C218.923 56.9141 220.742 57.9805 224.379 57.9805C226.703 57.9805 229.041 57.2422 231.392 55.7656C233.388 54.5078 235.179 53.2363 236.765 51.9512C238.379 50.6387 239.39 49.832 239.8 49.5312C240.238 49.2305 240.566 49.0801 240.785 49.0801C241.496 49.0801 241.851 49.873 241.851 51.459C241.851 53.0449 241.755 54.0977 241.564 54.6172C241.373 55.1094 240.826 55.7246 239.923 56.4629C234.072 61.2207 228.535 63.5996 223.312 63.5996C220.523 63.5996 218.295 63.2168 216.627 62.4512C213.564 61.0566 212.033 58.9238 212.033 56.0527C212.033 52.2793 214.644 49.4219 219.867 47.4805C218.828 47.0156 218.158 46.4277 217.857 45.7168C217.556 44.9785 217.406 43.8164 217.406 42.2305C217.406 40.6172 218.144 38.9219 219.621 37.1445C221.125 35.3398 222.957 33.8633 225.117 32.7148C229.929 30.1172 234.222 28.8184 237.996 28.8184C238.898 28.8184 239.814 29.0371 240.744 29.4746C241.673 29.9121 242.138 30.5273 242.138 31.3203ZM255.171 53.7969L255.13 54.4531C255.13 55.1367 255.39 55.7246 255.91 56.2168C256.429 56.709 256.908 56.9551 257.345 56.9551C260.626 56.9551 263.525 56.4629 266.041 55.4785C268.584 54.4941 269.855 53.5098 269.855 52.5254C269.855 52.0605 269.39 51.6641 268.46 51.3359C267.558 50.9805 266.013 50.5566 263.826 50.0645C261.666 49.5449 260.093 49.1484 259.109 48.875C258.125 48.5742 257.345 48.3008 256.771 48.0547C256.197 47.8086 255.609 47.4668 255.007 47.0293C253.722 46.127 253.08 44.7871 253.08 43.0098C253.08 41.2051 253.736 39.4277 255.048 37.6777C256.388 35.9004 258.056 34.3828 260.052 33.125C262.048 31.8672 264.195 30.7598 266.492 29.8027C271.031 27.916 274.845 26.9727 277.935 26.9727C280.97 26.9727 282.843 27.6289 283.554 28.9414C283.773 29.4062 283.882 29.9258 283.882 30.5V30.7871C283.882 32.2363 283.568 33.3711 282.939 34.1914C282.337 35.0117 281.367 35.75 280.027 36.4062C278.714 37.0625 277.662 37.3906 276.869 37.3906C276.103 37.3906 275.611 37.3359 275.392 37.2266C275.201 37.1172 275.037 36.9805 274.9 36.8164C274.763 36.625 274.585 36.4883 274.367 36.4062C274.175 36.3242 274.08 36.1191 274.08 35.791C274.08 35.4629 274.216 35.1348 274.49 34.8066C274.763 34.4512 274.955 34.082 275.064 33.6992C273.259 33.7812 271.373 34.2051 269.404 34.9707C267.435 35.709 265.74 36.543 264.318 37.4727C262.923 38.4023 261.761 39.291 260.832 40.1387C259.902 40.9863 259.437 41.6152 259.437 42.0254C259.437 42.4082 260.066 42.7227 261.324 42.9688C266.984 44.0898 270.703 45.0605 272.48 45.8809C274.257 46.7012 275.488 47.6309 276.171 48.6699C276.855 49.709 277.197 50.6523 277.197 51.5C277.197 53.25 276.5 54.9043 275.105 56.4629C273.71 58.0215 271.988 59.293 269.937 60.2773C265.535 62.4375 261.693 63.5176 258.412 63.5176C255.158 63.5176 252.902 63.0117 251.644 62C250.414 61.0156 249.798 59.8398 249.798 58.4727C249.798 57.1055 250.14 55.8477 250.824 54.6992C251.535 53.5234 252.437 52.9355 253.531 52.9355C254.625 52.9355 255.171 53.2227 255.171 53.7969Z" fill="#0076F6"/>
<path d="M3.03409 111V76.0909H26.1477V82.1761H10.4148V90.4943H24.6136V96.5795H10.4148V111H3.03409ZM46.6435 111.511C43.9958 111.511 41.706 110.949 39.7742 109.824C37.8538 108.687 36.3708 107.108 35.3253 105.085C34.2799 103.051 33.7572 100.693 33.7572 98.0114C33.7572 95.3068 34.2799 92.9432 35.3253 90.9205C36.3708 88.8864 37.8538 87.3068 39.7742 86.1818C41.706 85.0455 43.9958 84.4773 46.6435 84.4773C49.2913 84.4773 51.5753 85.0455 53.4958 86.1818C55.4276 87.3068 56.9163 88.8864 57.9617 90.9205C59.0072 92.9432 59.5299 95.3068 59.5299 98.0114C59.5299 100.693 59.0072 103.051 57.9617 105.085C56.9163 107.108 55.4276 108.687 53.4958 109.824C51.5753 110.949 49.2913 111.511 46.6435 111.511ZM46.6776 105.886C47.8822 105.886 48.8878 105.545 49.6947 104.864C50.5015 104.17 51.1094 103.227 51.5185 102.034C51.939 100.841 52.1492 99.483 52.1492 97.9602C52.1492 96.4375 51.939 95.0795 51.5185 93.8864C51.1094 92.6932 50.5015 91.75 49.6947 91.0568C48.8878 90.3636 47.8822 90.017 46.6776 90.017C45.4617 90.017 44.439 90.3636 43.6094 91.0568C42.7913 91.75 42.1719 92.6932 41.7515 93.8864C41.3424 95.0795 41.1378 96.4375 41.1378 97.9602C41.1378 99.483 41.3424 100.841 41.7515 102.034C42.1719 103.227 42.7913 104.17 43.6094 104.864C44.439 105.545 45.4617 105.886 46.6776 105.886ZM81.841 111.511C79.1933 111.511 76.9035 110.949 74.9717 109.824C73.0513 108.687 71.5683 107.108 70.5228 105.085C69.4774 103.051 68.9547 100.693 68.9547 98.0114C68.9547 95.3068 69.4774 92.9432 70.5228 90.9205C71.5683 88.8864 73.0513 87.3068 74.9717 86.1818C76.9035 85.0455 79.1933 84.4773 81.841 84.4773C84.4888 84.4773 86.7728 85.0455 88.6933 86.1818C90.6251 87.3068 92.1138 88.8864 93.1592 90.9205C94.2047 92.9432 94.7274 95.3068 94.7274 98.0114C94.7274 100.693 94.2047 103.051 93.1592 105.085C92.1138 107.108 90.6251 108.687 88.6933 109.824C86.7728 110.949 84.4888 111.511 81.841 111.511ZM81.8751 105.886C83.0797 105.886 84.0853 105.545 84.8922 104.864C85.699 104.17 86.3069 103.227 86.716 102.034C87.1365 100.841 87.3467 99.483 87.3467 97.9602C87.3467 96.4375 87.1365 95.0795 86.716 93.8864C86.3069 92.6932 85.699 91.75 84.8922 91.0568C84.0853 90.3636 83.0797 90.017 81.8751 90.017C80.6592 90.017 79.6365 90.3636 78.8069 91.0568C77.9888 91.75 77.3694 92.6932 76.949 93.8864C76.5399 95.0795 76.3353 96.4375 76.3353 97.9602C76.3353 99.483 76.5399 100.841 76.949 102.034C77.3694 103.227 77.9888 104.17 78.8069 104.864C79.6365 105.545 80.6592 105.886 81.8751 105.886ZM114.857 111.426C112.868 111.426 111.067 110.915 109.453 109.892C107.851 108.858 106.578 107.341 105.635 105.341C104.703 103.33 104.237 100.864 104.237 97.9432C104.237 94.9432 104.72 92.4489 105.686 90.4602C106.652 88.4602 107.936 86.9659 109.539 85.9773C111.152 84.9773 112.919 84.4773 114.84 84.4773C116.306 84.4773 117.527 84.7273 118.504 85.2273C119.493 85.7159 120.289 86.3295 120.891 87.0682C121.504 87.7955 121.97 88.5114 122.289 89.2159H122.51V76.0909H129.754V111H122.595V106.807H122.289C121.948 107.534 121.465 108.256 120.84 108.972C120.226 109.676 119.425 110.261 118.436 110.727C117.459 111.193 116.266 111.426 114.857 111.426ZM117.158 105.648C118.328 105.648 119.317 105.33 120.124 104.693C120.942 104.045 121.567 103.142 121.999 101.983C122.442 100.824 122.664 99.4659 122.664 97.9091C122.664 96.3523 122.448 95 122.016 93.8523C121.584 92.7045 120.959 91.8182 120.141 91.1932C119.323 90.5682 118.328 90.2557 117.158 90.2557C115.965 90.2557 114.959 90.5795 114.141 91.2273C113.323 91.875 112.703 92.7727 112.283 93.9205C111.862 95.0682 111.652 96.3977 111.652 97.9091C111.652 99.4318 111.862 100.778 112.283 101.949C112.715 103.108 113.334 104.017 114.141 104.676C114.959 105.324 115.965 105.648 117.158 105.648ZM177.428 86.1307C177.291 84.7557 176.706 83.6875 175.672 82.9261C174.638 82.1648 173.235 81.7841 171.462 81.7841C170.257 81.7841 169.24 81.9545 168.411 82.2955C167.581 82.625 166.945 83.0852 166.502 83.6761C166.07 84.267 165.854 84.9375 165.854 85.6875C165.831 86.3125 165.962 86.858 166.246 87.3239C166.541 87.7898 166.945 88.1932 167.456 88.5341C167.968 88.8636 168.559 89.1534 169.229 89.4034C169.899 89.642 170.615 89.8466 171.377 90.017L174.513 90.767C176.036 91.108 177.434 91.5625 178.706 92.1307C179.979 92.6989 181.081 93.3977 182.013 94.2273C182.945 95.0568 183.666 96.0341 184.178 97.1591C184.701 98.2841 184.968 99.5739 184.979 101.028C184.968 103.165 184.422 105.017 183.343 106.585C182.274 108.142 180.729 109.352 178.706 110.216C176.695 111.068 174.269 111.494 171.428 111.494C168.61 111.494 166.155 111.062 164.064 110.199C161.985 109.335 160.36 108.057 159.189 106.364C158.03 104.659 157.422 102.551 157.365 100.04H164.507C164.587 101.21 164.922 102.187 165.513 102.972C166.115 103.744 166.916 104.33 167.916 104.727C168.928 105.114 170.07 105.307 171.343 105.307C172.593 105.307 173.678 105.125 174.598 104.761C175.53 104.398 176.252 103.892 176.763 103.244C177.274 102.597 177.53 101.852 177.53 101.011C177.53 100.227 177.297 99.5682 176.831 99.0341C176.377 98.5 175.706 98.0455 174.82 97.6705C173.945 97.2955 172.871 96.9545 171.598 96.6477L167.797 95.6932C164.854 94.9773 162.53 93.858 160.826 92.3352C159.121 90.8125 158.274 88.7614 158.286 86.1818C158.274 84.0682 158.837 82.2216 159.973 80.642C161.121 79.0625 162.695 77.8295 164.695 76.9432C166.695 76.0568 168.968 75.6136 171.513 75.6136C174.104 75.6136 176.365 76.0568 178.297 76.9432C180.24 77.8295 181.752 79.0625 182.831 80.642C183.911 82.2216 184.468 84.0511 184.502 86.1307H177.428ZM202.828 95.8636V111H195.567V76.0909H202.624V89.4375H202.931C203.522 87.892 204.476 86.6818 205.794 85.8068C207.113 84.9205 208.766 84.4773 210.755 84.4773C212.573 84.4773 214.158 84.875 215.51 85.6705C216.874 86.4545 217.931 87.5852 218.681 89.0625C219.442 90.5284 219.817 92.2841 219.806 94.3295V111H212.544V95.625C212.556 94.0114 212.147 92.7557 211.317 91.858C210.499 90.9602 209.351 90.5114 207.874 90.5114C206.885 90.5114 206.01 90.7216 205.249 91.142C204.499 91.5625 203.908 92.1761 203.476 92.983C203.056 93.7784 202.84 94.7386 202.828 95.8636ZM243.11 111.511C240.462 111.511 238.172 110.949 236.24 109.824C234.32 108.687 232.837 107.108 231.792 105.085C230.746 103.051 230.223 100.693 230.223 98.0114C230.223 95.3068 230.746 92.9432 231.792 90.9205C232.837 88.8864 234.32 87.3068 236.24 86.1818C238.172 85.0455 240.462 84.4773 243.11 84.4773C245.758 84.4773 248.042 85.0455 249.962 86.1818C251.894 87.3068 253.383 88.8864 254.428 90.9205C255.473 92.9432 255.996 95.3068 255.996 98.0114C255.996 100.693 255.473 103.051 254.428 105.085C253.383 107.108 251.894 108.687 249.962 109.824C248.042 110.949 245.758 111.511 243.11 111.511ZM243.144 105.886C244.348 105.886 245.354 105.545 246.161 104.864C246.968 104.17 247.576 103.227 247.985 102.034C248.405 100.841 248.615 99.483 248.615 97.9602C248.615 96.4375 248.405 95.0795 247.985 93.8864C247.576 92.6932 246.968 91.75 246.161 91.0568C245.354 90.3636 244.348 90.017 243.144 90.017C241.928 90.017 240.905 90.3636 240.076 91.0568C239.258 91.75 238.638 92.6932 238.218 93.8864C237.809 95.0795 237.604 96.4375 237.604 97.9602C237.604 99.483 237.809 100.841 238.218 102.034C238.638 103.227 239.258 104.17 240.076 104.864C240.905 105.545 241.928 105.886 243.144 105.886ZM266.478 120.818V84.8182H273.637V89.2159H273.961C274.279 88.5114 274.739 87.7955 275.341 87.0682C275.955 86.3295 276.75 85.7159 277.728 85.2273C278.716 84.7273 279.944 84.4773 281.41 84.4773C283.319 84.4773 285.08 84.9773 286.694 85.9773C288.307 86.9659 289.597 88.4602 290.563 90.4602C291.529 92.4489 292.012 94.9432 292.012 97.9432C292.012 100.864 291.54 103.33 290.597 105.341C289.665 107.341 288.393 108.858 286.779 109.892C285.177 110.915 283.381 111.426 281.393 111.426C279.983 111.426 278.785 111.193 277.796 110.727C276.819 110.261 276.018 109.676 275.393 108.972C274.768 108.256 274.29 107.534 273.961 106.807H273.739V120.818H266.478ZM273.586 97.9091C273.586 99.4659 273.802 100.824 274.233 101.983C274.665 103.142 275.29 104.045 276.108 104.693C276.927 105.33 277.921 105.648 279.091 105.648C280.273 105.648 281.273 105.324 282.091 104.676C282.91 104.017 283.529 103.108 283.949 101.949C284.381 100.778 284.597 99.4318 284.597 97.9091C284.597 96.3977 284.387 95.0682 283.966 93.9205C283.546 92.7727 282.927 91.875 282.108 91.2273C281.29 90.5795 280.285 90.2557 279.091 90.2557C277.91 90.2557 276.91 90.5682 276.091 91.1932C275.285 91.8182 274.665 92.7045 274.233 93.8523C273.802 95 273.586 96.3523 273.586 97.9091Z" fill="white"/>
</svg>
